<svg width="375" height="684" viewBox="0 0 375 684" fill="none" xmlns="http://www.w3.org/2000/svg">
<path d="M390.802 389.337C371.532 419.602 332.681 433.6 285.128 431.49C237.605 429.382 181.609 411.179 128.442 377.329C75.2764 343.48 35.0894 300.446 13.0707 258.279C-8.96235 216.084 -12.718 174.959 6.55114 144.694C25.8203 114.429 64.6712 100.431 112.225 102.541C159.748 104.649 215.744 122.852 268.91 156.702C322.076 190.551 362.263 233.585 384.282 275.752C406.315 317.947 410.071 359.071 390.802 389.337Z" stroke="#FF7955" stroke-width="2"/>
<g filter="url(#filter0_f_2201_474)">
<circle cx="188" cy="319.98" r="164" fill="#FF7955" fill-opacity="0.6"/>
</g>
<g clip-path="url(#clip0_2201_474)">
<rect width="230.39" height="322.002" rx="21.7692" transform="matrix(1 0 0.22937 0.973339 14.0002 101.98)" fill="url(#paint0_linear_2201_474)"/>
<circle r="123.359" transform="matrix(1 0 0.22937 0.973339 207.21 144.358)" stroke="#FEA97B" stroke-width="1.8141"/>
<circle r="123.359" transform="matrix(1 0 0.22937 0.973339 281.089 199.978)" stroke="#FEA97B" stroke-width="1.8141"/>
<rect width="55.33" height="55.33" rx="10.8846" transform="matrix(1 0 0.22937 0.973339 42.01 128.466)" fill="white" fill-opacity="0.5"/>
<g filter="url(#filter1_b_2201_474)">
<rect width="208.621" height="80.7273" rx="10.8846" transform="matrix(1 0 0.22937 0.973339 73.9856 310.336)" fill="white" fill-opacity="0.12"/>
</g>
<path d="M217.89 134.634L217.127 131.395L215.43 130.876L214.909 128.664L224.563 131.803L225.14 134.25L216.965 137.39L216.438 135.153L217.89 134.634ZM219.438 134.09L222.448 133.014L218.934 131.951L219.438 134.09ZM223.887 140.953C224.266 141.159 224.6 141.444 224.888 141.806C225.177 142.169 225.379 142.593 225.493 143.079C225.627 143.648 225.6 144.163 225.413 144.624C225.225 145.086 224.887 145.448 224.399 145.712C223.913 145.984 223.306 146.12 222.578 146.12C221.85 146.12 221.174 145.984 220.552 145.712C219.939 145.448 219.426 145.086 219.013 144.624C218.608 144.163 218.338 143.648 218.204 143.079C218.092 142.601 218.093 142.177 218.209 141.806C218.327 141.444 218.522 141.159 218.795 140.953H214.427L213.929 138.84H224.393L224.891 140.953H223.887ZM222.071 143.969C222.613 143.969 223.001 143.821 223.236 143.524C223.481 143.236 223.554 142.877 223.453 142.449C223.354 142.029 223.112 141.67 222.729 141.374C222.348 141.085 221.887 140.941 221.345 140.941C220.803 140.941 220.409 141.085 220.164 141.374C219.921 141.67 219.849 142.029 219.948 142.449C220.047 142.869 220.288 143.228 220.671 143.524C221.063 143.821 221.529 143.969 222.071 143.969ZM225.981 149.837C226.36 150.043 226.693 150.327 226.982 150.69C227.27 151.052 227.472 151.477 227.587 151.963C227.721 152.531 227.694 153.046 227.506 153.508C227.319 153.969 226.981 154.332 226.493 154.595C226.006 154.867 225.399 155.003 224.671 155.003C223.943 155.003 223.268 154.867 222.645 154.595C222.033 154.332 221.52 153.969 221.106 153.508C220.701 153.046 220.432 152.531 220.298 151.963C220.185 151.485 220.187 151.06 220.302 150.69C220.42 150.327 220.616 150.043 220.889 149.837H216.52L216.022 147.723H226.486L226.984 149.837H225.981ZM224.164 152.853C224.706 152.853 225.095 152.704 225.33 152.408C225.575 152.119 225.647 151.761 225.546 151.332C225.447 150.912 225.206 150.554 224.823 150.257C224.441 149.969 223.98 149.824 223.438 149.824C222.896 149.824 222.503 149.969 222.258 150.257C222.014 150.554 221.942 150.912 222.041 151.332C222.14 151.753 222.381 152.111 222.764 152.408C223.156 152.704 223.623 152.853 224.164 152.853ZM231.389 158.72H221.992L221.493 156.607H230.891L231.389 158.72ZM227.658 167.248C227.455 167.248 227.241 167.235 227.015 167.211L225.887 162.427C225.455 162.46 225.148 162.596 224.968 162.835C224.797 163.082 224.754 163.383 224.837 163.737C224.962 164.265 225.277 164.631 225.782 164.837L226.312 167.087C225.82 166.972 225.351 166.761 224.907 166.457C224.464 166.16 224.084 165.785 223.765 165.332C223.447 164.879 223.222 164.372 223.09 163.812C222.931 163.136 222.937 162.534 223.109 162.007C223.281 161.48 223.607 161.068 224.088 160.771C224.568 160.474 225.176 160.326 225.913 160.326C226.649 160.326 227.327 160.47 227.945 160.759C228.565 161.055 229.086 161.467 229.506 161.995C229.927 162.522 230.218 163.128 230.379 163.812C230.536 164.479 230.532 165.072 230.366 165.591C230.201 166.111 229.886 166.514 229.42 166.803C228.957 167.099 228.369 167.248 227.658 167.248ZM227.72 165.085C228.093 165.085 228.36 164.961 228.522 164.714C228.683 164.467 228.721 164.158 228.633 163.787C228.55 163.433 228.373 163.132 228.103 162.885C227.835 162.646 227.5 162.497 227.097 162.44L227.72 165.085ZM234.527 174.084H225.612L225.114 171.971H234.029L234.527 174.084ZM234.242 180.313C234.432 181.12 234.313 181.763 233.884 182.241C233.465 182.727 232.786 182.97 231.846 182.97H227.706L227.211 180.869H231.059C231.533 180.869 231.873 180.75 232.079 180.511C232.285 180.272 232.341 179.95 232.246 179.547C232.15 179.143 231.943 178.821 231.625 178.582C231.306 178.344 230.909 178.224 230.435 178.224H226.588L226.09 176.11H233.175L233.674 178.224H232.734C233.098 178.438 233.411 178.727 233.674 179.089C233.946 179.452 234.135 179.86 234.242 180.313ZM231.613 184.513C232.349 184.513 233.027 184.657 233.645 184.946C234.265 185.242 234.784 185.65 235.203 186.169C235.624 186.697 235.914 187.298 236.073 187.974C236.277 188.839 236.214 189.56 235.884 190.137C235.556 190.722 234.991 191.105 234.187 191.287L233.657 189.037C234.154 188.847 234.338 188.481 234.21 187.937C234.119 187.55 233.889 187.241 233.522 187.01C233.163 186.779 232.695 186.664 232.12 186.664C231.544 186.664 231.127 186.779 230.868 187.01C230.617 187.241 230.538 187.55 230.629 187.937C230.757 188.481 231.114 188.847 231.701 189.037L232.231 191.287C231.359 191.105 230.617 190.722 230.005 190.137C229.393 189.552 228.986 188.831 228.784 187.974C228.625 187.298 228.631 186.697 228.803 186.169C228.977 185.65 229.304 185.242 229.784 184.946C230.267 184.657 230.876 184.513 231.613 184.513ZM230.18 193.9C230.093 193.53 230.131 193.225 230.295 192.986C230.469 192.755 230.721 192.64 231.051 192.64C231.39 192.64 231.701 192.755 231.984 192.986C232.269 193.225 232.455 193.53 232.542 193.9C232.628 194.263 232.583 194.56 232.409 194.79C232.237 195.029 231.981 195.149 231.643 195.149C231.313 195.149 231.005 195.029 230.72 194.79C230.446 194.56 230.266 194.263 230.18 193.9Z" fill="#FFDDCC"/>
<path d="M115.487 346.652C115.695 347.535 115.664 348.365 115.394 349.142C115.141 349.919 114.642 350.572 113.896 351.102C113.168 351.632 112.227 351.95 111.073 352.056L111.579 354.201H109.81L109.304 352.056C107.562 351.897 106.06 351.376 104.8 350.493C103.54 349.61 102.739 348.445 102.398 346.997H105.718C105.934 347.685 106.296 348.259 106.804 348.718C107.307 349.16 107.945 349.442 108.718 349.566L107.345 343.739C106.058 343.439 104.999 343.139 104.166 342.839C103.33 342.521 102.56 342.026 101.858 341.355C101.173 340.684 100.694 339.766 100.419 338.601C100.074 337.135 100.315 335.926 101.143 334.972C101.966 334.001 103.211 333.436 104.879 333.277L104.374 331.132H106.142L106.648 333.277C108.278 333.418 109.673 333.913 110.834 334.76C112.01 335.59 112.833 336.738 113.306 338.203H109.986C109.802 337.656 109.47 337.171 108.989 336.747C108.504 336.305 107.926 336.005 107.253 335.846L108.602 341.567C109.884 341.85 110.943 342.15 111.78 342.468C112.612 342.768 113.371 343.253 114.055 343.924C114.735 344.578 115.213 345.487 115.487 346.652ZM103.538 338.442C103.709 339.166 104.06 339.731 104.591 340.137C105.14 340.543 105.852 340.87 106.727 341.117L105.466 335.767C104.707 335.855 104.145 336.129 103.782 336.588C103.437 337.047 103.355 337.665 103.538 338.442ZM110.487 349.566C111.256 349.442 111.809 349.133 112.146 348.639C112.479 348.127 112.562 347.518 112.395 346.811C112.229 346.105 111.873 345.558 111.328 345.169C110.797 344.763 110.094 344.436 109.219 344.189L110.487 349.566ZM130.91 334.919L127.346 351.897H124.217L127.937 335.237H117.869L117.264 332.668H130.38L130.91 334.919ZM140.358 352.082C139.796 352.082 139.28 351.897 138.812 351.526C138.344 351.155 138.045 350.696 137.916 350.149C137.787 349.601 137.869 349.142 138.163 348.771C138.456 348.401 138.884 348.215 139.447 348.215C139.991 348.215 140.497 348.401 140.966 348.771C141.434 349.142 141.733 349.601 141.862 350.149C141.991 350.696 141.908 351.155 141.615 351.526C141.321 351.897 140.902 352.082 140.358 352.082ZM147.053 347.791C148.45 346.326 149.536 345.125 150.313 344.189C151.105 343.236 151.715 342.247 152.145 341.223C152.575 340.199 152.669 339.175 152.428 338.15C152.178 337.091 151.72 336.261 151.052 335.661C150.403 335.06 149.525 334.76 148.418 334.76C147.348 334.76 146.592 335.096 146.152 335.767C145.725 336.42 145.625 337.303 145.851 338.415H142.857C142.438 336.402 142.692 334.866 143.622 333.807C144.565 332.73 145.953 332.191 147.785 332.191C149.763 332.191 151.43 332.721 152.786 333.78C154.16 334.84 155.055 336.252 155.472 338.018C155.771 339.289 155.725 340.517 155.332 341.7C154.954 342.865 154.412 343.916 153.708 344.851C153.017 345.77 152.108 346.838 150.98 348.056L150.005 349.116H158.631L159.224 351.632H145.999L145.481 349.434L147.053 347.791ZM158.791 335.343L158.142 332.588H163.802L168.352 351.897H165.222L161.322 335.343H158.791ZM170.221 337.356C169.943 335.714 170.285 334.434 171.248 333.515C172.229 332.597 173.644 332.138 175.495 332.138C176.765 332.138 177.914 332.359 178.943 332.8C179.973 333.242 180.813 333.842 181.463 334.601C182.114 335.361 182.551 336.217 182.776 337.171C183.034 338.265 182.955 339.201 182.54 339.978C182.124 340.755 181.53 341.276 180.758 341.541L180.783 341.647C181.928 341.964 182.9 342.547 183.699 343.395C184.493 344.225 185.044 345.293 185.352 346.6C185.597 347.641 185.571 348.568 185.272 349.381C184.974 350.193 184.4 350.837 183.551 351.314C182.698 351.773 181.6 352.003 180.258 352.003C178.298 352.003 176.569 351.517 175.071 350.546C173.586 349.557 172.582 348.145 172.058 346.308H175.052C175.345 347.244 175.898 348.012 176.71 348.612C177.519 349.195 178.495 349.486 179.637 349.486C180.744 349.486 181.528 349.195 181.989 348.612C182.446 348.012 182.565 347.244 182.344 346.308C182.053 345.072 181.439 344.198 180.502 343.686C179.579 343.156 178.283 342.891 176.614 342.891H175.906L175.32 340.402H176.054C177.52 340.384 178.579 340.146 179.233 339.687C179.905 339.228 180.124 338.504 179.891 337.515C179.691 336.667 179.252 335.996 178.573 335.502C177.89 334.99 177.032 334.734 175.998 334.734C174.982 334.734 174.253 334.99 173.811 335.502C173.365 335.996 173.175 336.614 173.241 337.356H170.221ZM192.651 352.082C192.088 352.082 191.573 351.897 191.105 351.526C190.636 351.155 190.338 350.696 190.209 350.149C190.08 349.601 190.162 349.142 190.455 348.771C190.749 348.401 191.177 348.215 191.739 348.215C192.284 348.215 192.79 348.401 193.258 348.771C193.727 349.142 194.025 349.601 194.154 350.149C194.283 350.696 194.201 351.155 193.907 351.526C193.614 351.897 193.195 352.082 192.651 352.082ZM196.265 341.991C195.545 338.936 195.509 336.552 196.158 334.84C196.821 333.109 198.449 332.244 201.043 332.244C203.637 332.244 205.664 333.109 207.124 334.84C208.598 336.552 209.695 338.936 210.415 341.991C211.143 345.081 211.178 347.5 210.52 349.248C209.875 350.979 208.256 351.844 205.662 351.844C203.068 351.844 201.031 350.979 199.553 349.248C198.089 347.5 196.993 345.081 196.265 341.991ZM207.367 341.991C207.03 340.561 206.645 339.351 206.213 338.362C205.798 337.374 205.228 336.57 204.502 335.952C203.772 335.316 202.835 334.999 201.692 334.999C200.549 334.999 199.762 335.316 199.332 335.952C198.897 336.57 198.696 337.374 198.73 338.362C198.781 339.351 198.976 340.561 199.313 341.991C199.662 343.474 200.046 344.719 200.465 345.725C200.883 346.732 201.456 347.544 202.182 348.162C202.926 348.78 203.87 349.089 205.013 349.089C206.156 349.089 206.944 348.78 207.379 348.162C207.832 347.544 208.031 346.732 207.975 345.725C207.919 344.719 207.717 343.474 207.367 341.991ZM225.971 335.184H216.855L218.097 340.455C218.362 339.96 218.826 339.545 219.491 339.21C220.174 338.874 220.942 338.707 221.794 338.707C223.318 338.707 224.627 339.025 225.72 339.66C226.831 340.296 227.701 341.099 228.329 342.07C228.975 343.042 229.425 344.066 229.678 345.143C229.986 346.449 229.998 347.615 229.713 348.639C229.442 349.645 228.859 350.44 227.962 351.023C227.083 351.605 225.9 351.897 224.413 351.897C222.435 351.897 220.736 351.42 219.314 350.466C217.892 349.513 216.878 348.25 216.271 346.679H219.292C219.687 347.509 220.288 348.171 221.093 348.665C221.895 349.142 222.813 349.381 223.847 349.381C225.135 349.381 226.007 349.001 226.463 348.242C226.937 347.482 227.027 346.476 226.731 345.222C226.432 343.951 225.876 342.98 225.065 342.309C224.25 341.62 223.207 341.276 221.937 341.276C221.048 341.276 220.347 341.497 219.835 341.938C219.336 342.362 219.038 342.944 218.94 343.686H216.002L213.374 332.535H225.347L225.971 335.184Z" fill="#FAFAFA"/>
<path d="M114.211 373.43H111.829L112.389 375.806H111.139L110.579 373.43H108.197L107.937 372.328H110.319L109.76 369.953H111.009L111.569 372.328H113.951L114.211 373.43ZM120.802 369.78H116.851L117.39 372.064C117.504 371.85 117.705 371.67 117.994 371.525C118.289 371.38 118.622 371.307 118.992 371.307C119.652 371.307 120.219 371.445 120.693 371.72C121.174 371.996 121.551 372.344 121.823 372.764C122.103 373.185 122.298 373.629 122.408 374.096C122.541 374.662 122.547 375.167 122.423 375.611C122.306 376.047 122.053 376.391 121.664 376.644C121.284 376.896 120.771 377.023 120.126 377.023C119.269 377.023 118.533 376.816 117.917 376.403C117.3 375.99 116.861 375.443 116.598 374.762H117.907C118.078 375.121 118.339 375.408 118.688 375.622C119.035 375.829 119.433 375.932 119.881 375.932C120.439 375.932 120.817 375.768 121.015 375.439C121.22 375.11 121.259 374.674 121.131 374.13C121.001 373.579 120.76 373.159 120.409 372.868C120.056 372.569 119.604 372.42 119.053 372.42C118.668 372.42 118.365 372.516 118.142 372.707C117.926 372.891 117.797 373.143 117.755 373.465H116.481L115.343 368.633H120.531L120.802 369.78ZM123.486 372.73C123.174 371.406 123.158 370.373 123.439 369.631C123.726 368.881 124.432 368.506 125.556 368.506C126.68 368.506 127.559 368.881 128.191 369.631C128.83 370.373 129.305 371.406 129.617 372.73C129.933 374.069 129.948 375.117 129.663 375.875C129.383 376.625 128.682 377 127.557 377C126.433 377 125.551 376.625 124.911 375.875C124.276 375.117 123.801 374.069 123.486 372.73ZM128.297 372.73C128.15 372.11 127.984 371.586 127.796 371.158C127.617 370.729 127.37 370.381 127.055 370.113C126.738 369.838 126.333 369.7 125.837 369.7C125.342 369.7 125.001 369.838 124.815 370.113C124.626 370.381 124.539 370.729 124.554 371.158C124.576 371.586 124.66 372.11 124.806 372.73C124.958 373.373 125.124 373.912 125.305 374.348C125.487 374.784 125.735 375.136 126.05 375.404C126.372 375.672 126.781 375.806 127.276 375.806C127.771 375.806 128.113 375.672 128.302 375.404C128.498 375.136 128.584 374.784 128.56 374.348C128.536 373.912 128.448 373.373 128.297 372.73ZM132.789 377.103C132.546 377.103 132.322 377.023 132.119 376.862C131.916 376.701 131.787 376.502 131.731 376.265C131.675 376.028 131.711 375.829 131.838 375.668C131.965 375.508 132.151 375.427 132.394 375.427C132.63 375.427 132.85 375.508 133.053 375.668C133.256 375.829 133.385 376.028 133.441 376.265C133.497 376.502 133.461 376.701 133.334 376.862C133.207 377.023 133.025 377.103 132.789 377.103ZM135.219 375.244C135.824 374.609 136.295 374.088 136.632 373.683C136.975 373.269 137.239 372.841 137.425 372.397C137.612 371.953 137.653 371.51 137.548 371.066C137.44 370.607 137.241 370.247 136.952 369.987C136.67 369.727 136.29 369.597 135.81 369.597C135.347 369.597 135.019 369.742 134.828 370.033C134.643 370.316 134.6 370.699 134.698 371.181H133.401C133.219 370.308 133.329 369.643 133.732 369.184C134.141 368.717 134.742 368.483 135.536 368.483C136.393 368.483 137.115 368.713 137.703 369.172C138.299 369.631 138.687 370.243 138.867 371.008C138.997 371.559 138.977 372.091 138.807 372.604C138.643 373.109 138.408 373.564 138.103 373.97C137.803 374.367 137.409 374.83 136.92 375.358L136.498 375.817H140.236L140.493 376.908H134.762L134.538 375.955L135.219 375.244ZM140.192 370.722C140.072 370.01 140.22 369.455 140.637 369.057C141.063 368.659 141.676 368.461 142.478 368.461C143.028 368.461 143.526 368.556 143.972 368.747C144.418 368.939 144.782 369.199 145.064 369.528C145.346 369.857 145.536 370.228 145.633 370.641C145.745 371.116 145.711 371.521 145.531 371.858C145.351 372.194 145.093 372.42 144.759 372.535L144.769 372.581C145.266 372.719 145.687 372.971 146.033 373.338C146.377 373.698 146.616 374.161 146.749 374.727C146.856 375.179 146.844 375.58 146.715 375.932C146.585 376.284 146.337 376.563 145.969 376.77C145.599 376.969 145.123 377.068 144.542 377.068C143.693 377.068 142.943 376.858 142.294 376.437C141.651 376.009 141.216 375.397 140.989 374.601H142.286C142.413 375.006 142.652 375.339 143.005 375.599C143.355 375.852 143.778 375.978 144.273 375.978C144.752 375.978 145.092 375.852 145.292 375.599C145.49 375.339 145.542 375.006 145.446 374.601C145.32 374.065 145.054 373.686 144.648 373.465C144.248 373.235 143.686 373.12 142.963 373.12H142.656L142.402 372.041H142.72C143.355 372.034 143.814 371.93 144.098 371.732C144.389 371.533 144.484 371.219 144.383 370.79C144.296 370.423 144.106 370.132 143.812 369.918C143.516 369.696 143.144 369.585 142.696 369.585C142.256 369.585 141.94 369.696 141.748 369.918C141.555 370.132 141.473 370.4 141.501 370.722H140.192ZM152.538 369.78H148.587L149.126 372.064C149.24 371.85 149.442 371.67 149.73 371.525C150.025 371.38 150.358 371.307 150.728 371.307C151.388 371.307 151.955 371.445 152.429 371.72C152.91 371.996 153.287 372.344 153.559 372.764C153.839 373.185 154.034 373.629 154.144 374.096C154.278 374.662 154.283 375.167 154.159 375.611C154.042 376.047 153.789 376.391 153.4 376.644C153.02 376.896 152.507 377.023 151.862 377.023C151.005 377.023 150.269 376.816 149.653 376.403C149.037 375.99 148.597 375.443 148.334 374.762H149.643C149.815 375.121 150.075 375.408 150.424 375.622C150.771 375.829 151.169 375.932 151.617 375.932C152.175 375.932 152.553 375.768 152.751 375.439C152.956 375.11 152.995 374.674 152.867 374.13C152.737 373.579 152.496 373.159 152.145 372.868C151.792 372.569 151.34 372.42 150.79 372.42C150.404 372.42 150.101 372.516 149.878 372.707C149.662 372.891 149.533 373.143 149.491 373.465H148.217L147.079 368.633H152.267L152.538 369.78ZM162.948 379.157C162.008 378.438 161.199 377.524 160.521 376.414C159.85 375.305 159.366 374.115 159.066 372.845C158.76 371.544 158.691 370.316 158.859 369.161C159.034 368.005 159.466 367.053 160.154 366.303H161.546L161.575 366.429C160.863 367.24 160.412 368.212 160.222 369.344C160.033 370.477 160.08 371.644 160.363 372.845C160.636 374 161.111 375.117 161.79 376.196C162.469 377.275 163.308 378.22 164.309 379.031L164.339 379.157H162.948ZM168.935 369.78H164.985L165.523 372.064C165.638 371.85 165.839 371.67 166.127 371.525C166.423 371.38 166.756 371.307 167.125 371.307C167.786 371.307 168.353 371.445 168.826 371.72C169.308 371.996 169.685 372.344 169.957 372.764C170.237 373.185 170.432 373.629 170.542 374.096C170.675 374.662 170.68 375.167 170.557 375.611C170.44 376.047 170.187 376.391 169.798 376.644C169.417 376.896 168.905 377.023 168.26 377.023C167.403 377.023 166.667 376.816 166.05 376.403C165.434 375.99 164.995 375.443 164.732 374.762H166.041C166.212 375.121 166.472 375.408 166.822 375.622C167.169 375.829 167.567 375.932 168.015 375.932C168.573 375.932 168.951 375.768 169.149 375.439C169.354 375.11 169.393 374.674 169.265 374.13C169.135 373.579 168.894 373.159 168.543 372.868C168.189 372.569 167.738 372.42 167.187 372.42C166.802 372.42 166.498 372.516 166.276 372.707C166.06 372.891 165.931 373.143 165.889 373.465H164.615L163.477 368.633H168.665L168.935 369.78ZM173.369 377.103C173.125 377.103 172.902 377.023 172.699 376.862C172.496 376.701 172.367 376.502 172.311 376.265C172.255 376.028 172.291 375.829 172.418 375.668C172.545 375.508 172.731 375.427 172.974 375.427C173.21 375.427 173.429 375.508 173.632 375.668C173.835 375.829 173.965 376.028 174.021 376.265C174.077 376.502 174.041 376.701 173.914 376.862C173.786 377.023 173.605 377.103 173.369 377.103ZM175.799 375.244C176.404 374.609 176.875 374.088 177.212 373.683C177.554 373.269 177.819 372.841 178.005 372.397C178.191 371.953 178.232 371.51 178.128 371.066C178.02 370.607 177.821 370.247 177.532 369.987C177.25 369.727 176.87 369.597 176.39 369.597C175.926 369.597 175.599 369.742 175.408 370.033C175.223 370.316 175.18 370.699 175.278 371.181H173.981C173.799 370.308 173.909 369.643 174.312 369.184C174.721 368.717 175.322 368.483 176.116 368.483C176.973 368.483 177.695 368.713 178.283 369.172C178.878 369.631 179.266 370.243 179.447 371.008C179.577 371.559 179.556 372.091 179.386 372.604C179.222 373.109 178.988 373.564 178.682 373.97C178.383 374.367 177.989 374.83 177.5 375.358L177.078 375.817H180.816L181.073 376.908H175.342L175.117 375.955L175.799 375.244ZM186.116 369.78H182.166L182.704 372.064C182.819 371.85 183.02 371.67 183.308 371.525C183.604 371.38 183.937 371.307 184.306 371.307C184.966 371.307 185.534 371.445 186.007 371.72C186.489 371.996 186.866 372.344 187.138 372.764C187.418 373.185 187.613 373.629 187.723 374.096C187.856 374.662 187.861 375.167 187.738 375.611C187.62 376.047 187.367 376.391 186.979 376.644C186.598 376.896 186.085 377.023 185.441 377.023C184.584 377.023 183.847 376.816 183.231 376.403C182.615 375.99 182.176 375.443 181.913 374.762H183.222C183.393 375.121 183.653 375.408 184.002 375.622C184.35 375.829 184.748 375.932 185.196 375.932C185.754 375.932 186.132 375.768 186.329 375.439C186.535 375.11 186.573 374.674 186.445 374.13C186.316 373.579 186.075 373.159 185.723 372.868C185.37 372.569 184.918 372.42 184.368 372.42C183.983 372.42 183.679 372.516 183.457 372.707C183.241 372.891 183.112 373.143 183.069 373.465H181.796L180.657 368.633H185.846L186.116 369.78ZM188.104 370.676C187.972 370.117 188.034 369.681 188.291 369.367C188.553 369.046 188.947 368.885 189.474 368.885C190.001 368.885 190.467 369.046 190.873 369.367C191.285 369.681 191.557 370.117 191.688 370.676C191.82 371.234 191.755 371.674 191.492 371.996C191.238 372.317 190.847 372.478 190.321 372.478C189.794 372.478 189.324 372.317 188.91 371.996C188.504 371.674 188.235 371.234 188.104 370.676ZM194.91 369.034L192.087 377.023H190.767L193.589 369.034H194.91ZM189.661 369.677C189.166 369.677 188.996 370.01 189.153 370.676C189.312 371.349 189.639 371.686 190.134 371.686C190.37 371.686 190.532 371.605 190.62 371.445C190.714 371.276 190.72 371.02 190.639 370.676C190.482 370.01 190.156 369.677 189.661 369.677ZM194.009 375.37C193.878 374.811 193.94 374.375 194.196 374.061C194.458 373.74 194.853 373.579 195.38 373.579C195.898 373.579 196.361 373.74 196.767 374.061C197.179 374.375 197.45 374.811 197.582 375.37C197.714 375.928 197.648 376.368 197.386 376.69C197.132 377.011 196.745 377.172 196.226 377.172C195.699 377.172 195.229 377.011 194.815 376.69C194.41 376.368 194.141 375.928 194.009 375.37ZM195.554 374.371C195.059 374.371 194.89 374.704 195.047 375.37C195.204 376.036 195.53 376.368 196.025 376.368C196.52 376.368 196.689 376.036 196.533 375.37C196.376 374.704 196.05 374.371 195.554 374.371ZM199.523 379.157L199.494 379.031C200.112 378.22 200.507 377.275 200.677 376.196C200.847 375.117 200.796 374 200.524 372.845C200.241 371.644 199.738 370.477 199.015 369.344C198.292 368.212 197.383 367.24 196.288 366.429L196.258 366.303H197.65C198.691 367.053 199.568 368.005 200.281 369.161C201.001 370.316 201.514 371.544 201.821 372.845C202.12 374.115 202.192 375.305 202.037 376.414C201.89 377.524 201.516 378.438 200.915 379.157H199.523Z" fill="#FFE7DB"/>
<path d="M194.751 131.761C195.273 131.083 196.016 130.553 196.978 130.172C197.942 129.797 199.034 129.61 200.253 129.61C201.501 129.61 202.712 129.808 203.886 130.203C205.07 130.606 206.101 131.178 206.979 131.92L207.217 132.926H207.119C206.17 132.135 205.112 131.538 203.943 131.136C202.783 130.74 201.626 130.542 200.472 130.542C199.348 130.542 198.318 130.73 197.383 131.104C196.45 131.485 195.684 132.04 195.086 132.767H194.988L194.751 131.761ZM200.707 141.282L199.948 138.061L198.121 137.468L197.881 136.451L206.053 139.121L206.315 140.233L199.399 142.892L199.159 141.875L200.707 141.282ZM201.447 141.007L204.964 139.672L200.818 138.337L201.447 141.007ZM202.389 148.421L201.63 145.2L199.803 144.607L199.563 143.59L207.735 146.26L207.998 147.372L201.081 150.031L200.842 149.014L202.389 148.421ZM203.129 148.145L206.646 146.81L202.5 145.476L203.129 148.145ZM207.885 156.132C207.254 156.132 206.678 155.92 206.157 155.496C205.645 155.079 205.288 154.44 205.085 153.578L204.75 152.159H201.583L201.355 151.195H208.942L209.504 153.578C209.7 154.412 209.642 155.044 209.33 155.475C209.02 155.913 208.538 156.132 207.885 156.132ZM205.901 153.578C206.027 154.115 206.24 154.511 206.54 154.765C206.839 155.019 207.21 155.146 207.653 155.146C208.589 155.146 208.934 154.624 208.687 153.578L208.353 152.159H205.566L205.901 153.578ZM203.834 158.294L204.443 160.879H203.638L202.801 157.33H210.388L210.615 158.294H203.834ZM202.447 164.42H202.545C203.486 165.148 204.512 165.699 205.623 166.073C206.736 166.454 207.855 166.645 208.98 166.645C210.134 166.645 211.197 166.444 212.168 166.041C213.149 165.646 213.927 165.052 214.503 164.261H214.601L214.838 165.268C214.309 166.009 213.547 166.578 212.551 166.973C211.565 167.376 210.448 167.577 209.2 167.577C207.981 167.577 206.8 167.387 205.658 167.005C204.518 166.631 203.527 166.105 202.685 165.427L202.447 164.42Z" fill="#FFDDCC"/>
</g>
<g filter="url(#filter2_f_2201_474)">
<rect width="244.571" height="322.002" rx="21.7692" transform="matrix(1 0 -0.22937 0.973339 122.857 194.98)" fill="#1F1F1F" fill-opacity="0.4"/>
</g>
<g clip-path="url(#clip1_2201_474)">
<rect width="230.39" height="322.002" rx="21.7692" transform="matrix(1 0 -0.22937 0.973339 153.609 180.711)" fill="url(#paint1_linear_2201_474)"/>
<circle r="123.359" transform="matrix(1 0 -0.22937 0.973339 326.846 223.088)" stroke="#FEA97B" stroke-width="1.8141"/>
<circle r="123.359" transform="matrix(1 0 -0.22937 0.973339 374.51 278.709)" stroke="#FEA97B" stroke-width="1.8141"/>
<rect width="55.33" height="55.33" rx="10.8846" transform="matrix(1 0 -0.22937 0.973339 169.136 207.196)" fill="#383838"/>
<g filter="url(#filter3_b_2201_474)">
<rect width="208.621" height="80.7273" rx="10.8846" transform="matrix(1 0 -0.22937 0.973339 115.392 389.067)" fill="#1F1F1F" fill-opacity="0.1"/>
</g>
<path d="M348.406 217.789H339.492L339.99 215.675H345.336L340.447 213.735L340.849 212.029L346.668 210.076H341.309L341.807 207.963H350.722L350.134 210.459L343.388 212.894L348.992 215.305L348.406 217.789ZM342.672 219.383C343.4 219.383 344.008 219.515 344.496 219.779C344.982 220.05 345.319 220.417 345.507 220.879C345.694 221.34 345.721 221.855 345.587 222.424C345.473 222.91 345.271 223.334 344.982 223.697C344.692 224.067 344.358 224.352 343.981 224.55H344.985L344.486 226.663H337.401L337.899 224.55H338.902C338.62 224.344 338.422 224.055 338.306 223.684C338.188 223.322 338.186 222.897 338.301 222.411C338.433 221.851 338.702 221.34 339.107 220.879C339.52 220.417 340.034 220.05 340.648 219.779C341.269 219.515 341.944 219.383 342.672 219.383ZM341.442 224.55C341.983 224.55 342.446 224.401 342.829 224.105C343.21 223.816 343.45 223.462 343.549 223.042C343.648 222.621 343.576 222.263 343.333 221.966C343.096 221.678 342.707 221.534 342.165 221.534C341.623 221.534 341.157 221.678 340.768 221.966C340.385 222.263 340.144 222.621 340.045 223.042C339.946 223.462 340.019 223.816 340.264 224.105C340.507 224.401 340.9 224.55 341.442 224.55ZM336.161 231.492C336.303 230.891 336.535 230.355 336.857 229.886C337.179 229.416 337.555 229.045 337.983 228.773C338.419 228.501 338.87 228.349 339.335 228.316L338.843 230.405C338.591 230.429 338.366 230.541 338.167 230.738C337.968 230.936 337.835 231.179 337.767 231.468C337.705 231.731 337.708 231.933 337.777 232.073C337.852 232.222 337.974 232.296 338.143 232.296C338.346 232.296 338.519 232.193 338.66 231.987C338.811 231.781 338.999 231.447 339.227 230.986C339.462 230.491 339.681 230.079 339.886 229.75C340.099 229.42 340.374 229.136 340.709 228.897C341.053 228.658 341.467 228.538 341.949 228.538C342.356 228.538 342.699 228.645 342.978 228.86C343.265 229.082 343.456 229.403 343.551 229.824C343.645 230.252 343.623 230.759 343.485 231.344C343.281 232.209 342.901 232.889 342.344 233.383C341.785 233.886 341.133 234.174 340.388 234.249L340.848 232.296C341.101 232.263 341.321 232.156 341.508 231.974C341.693 231.801 341.819 231.571 341.887 231.282C341.945 231.035 341.939 230.845 341.868 230.714C341.806 230.582 341.691 230.516 341.521 230.516C341.318 230.516 341.142 230.619 340.991 230.825C340.839 231.039 340.66 231.369 340.454 231.814C340.198 232.325 339.964 232.741 339.753 233.062C339.55 233.383 339.273 233.664 338.92 233.903C338.574 234.15 338.154 234.277 337.662 234.286C337.247 234.286 336.901 234.17 336.626 233.94C336.356 233.717 336.179 233.392 336.094 232.963C336.007 232.543 336.029 232.053 336.161 231.492ZM336.119 239.917H334.277L334.531 238.842C334.711 238.076 335.043 237.478 335.524 237.05C336.015 236.621 336.696 236.407 337.568 236.407H340.387L340.585 235.566H342.388L342.19 236.407H343.917L343.419 238.521H341.692L341.366 239.905H339.563L339.889 238.521H337.045C336.833 238.521 336.669 238.57 336.552 238.669C336.436 238.768 336.351 238.933 336.296 239.163L336.119 239.917ZM336.008 248.09C335.805 248.09 335.597 248.078 335.382 248.053L336.509 243.27C336.061 243.303 335.691 243.439 335.397 243.678C335.111 243.925 334.925 244.226 334.842 244.58C334.718 245.107 334.86 245.474 335.268 245.68L334.738 247.93C334.3 247.814 333.93 247.604 333.63 247.299C333.327 247.003 333.123 246.628 333.019 246.175C332.914 245.721 332.927 245.215 333.059 244.654C333.219 243.979 333.509 243.377 333.929 242.85C334.35 242.322 334.87 241.91 335.49 241.614C336.11 241.317 336.789 241.169 337.525 241.169C338.262 241.169 338.871 241.313 339.354 241.601C339.834 241.898 340.16 242.31 340.332 242.837C340.504 243.365 340.51 243.97 340.348 244.654C340.191 245.322 339.907 245.915 339.497 246.434C339.087 246.953 338.581 247.357 337.98 247.645C337.377 247.942 336.72 248.09 336.008 248.09ZM337.09 245.927C337.462 245.927 337.788 245.804 338.066 245.557C338.344 245.309 338.527 245 338.615 244.63C338.698 244.275 338.663 243.974 338.51 243.727C338.354 243.488 338.089 243.34 337.713 243.282L337.09 245.927ZM337.379 251.813C337.71 252.061 337.942 252.37 338.075 252.74C338.216 253.111 338.233 253.523 338.126 253.976H335.828L335.965 253.395C336.089 252.868 336.064 252.473 335.889 252.209C335.722 251.945 335.347 251.813 334.763 251.813H331.474L331.972 249.7H339.058L338.56 251.813H337.379ZM335.164 255.123C336.044 255.123 336.784 255.308 337.382 255.679C337.989 256.05 338.405 256.565 338.631 257.224C338.863 257.891 338.88 258.645 338.682 259.486C338.439 260.516 337.952 261.397 337.221 262.131C336.489 262.864 335.611 263.354 334.588 263.602L335.136 261.278C335.549 261.105 335.891 260.858 336.161 260.536C336.43 260.223 336.612 259.865 336.707 259.461C336.86 258.81 336.752 258.283 336.381 257.879C336.011 257.475 335.436 257.273 334.657 257.273C333.878 257.273 333.209 257.475 332.648 257.879C332.087 258.283 331.73 258.81 331.577 259.461C331.481 259.865 331.494 260.223 331.615 260.536C331.734 260.858 331.96 261.105 332.291 261.278L331.744 263.602C330.837 263.354 330.19 262.864 329.804 262.131C329.427 261.397 329.36 260.516 329.602 259.486C329.8 258.645 330.169 257.891 330.707 257.224C331.252 256.565 331.911 256.05 332.684 255.679C333.457 255.308 334.284 255.123 335.164 255.123ZM331.929 264.97C332.657 264.97 333.265 265.102 333.753 265.366C334.24 265.638 334.576 266.004 334.764 266.466C334.952 266.927 334.978 267.442 334.844 268.011C334.73 268.497 334.528 268.921 334.24 269.284C333.949 269.655 333.615 269.939 333.239 270.137H334.242L333.744 272.25H326.658L327.156 270.137H328.159C327.878 269.931 327.679 269.642 327.563 269.271C327.445 268.909 327.444 268.485 327.558 267.998C327.69 267.438 327.959 266.927 328.364 266.466C328.777 266.004 329.291 265.638 329.906 265.366C330.527 265.102 331.201 264.97 331.929 264.97ZM330.699 270.137C331.241 270.137 331.703 269.988 332.086 269.692C332.468 269.403 332.708 269.049 332.807 268.629C332.906 268.208 332.834 267.85 332.59 267.553C332.353 267.265 331.964 267.121 331.422 267.121C330.88 267.121 330.415 267.265 330.025 267.553C329.642 267.85 329.401 268.208 329.302 268.629C329.203 269.049 329.276 269.403 329.521 269.692C329.765 269.988 330.157 270.137 330.699 270.137ZM331.588 276.387C331.919 276.634 332.151 276.943 332.284 277.314C332.425 277.685 332.442 278.097 332.335 278.55H330.037L330.174 277.969C330.298 277.442 330.273 277.046 330.098 276.783C329.931 276.519 329.556 276.387 328.972 276.387H325.683L326.181 274.274H333.267L332.769 276.387H331.588ZM328.473 279.635C329.201 279.635 329.809 279.767 330.298 280.03C330.784 280.302 331.121 280.669 331.308 281.13C331.496 281.592 331.523 282.107 331.389 282.675C331.282 283.129 331.087 283.541 330.805 283.911C330.521 284.29 330.189 284.587 329.808 284.801H333.097L332.599 286.915H323.202L323.7 284.801H324.716C324.424 284.603 324.22 284.319 324.104 283.948C323.987 283.586 323.985 283.161 324.1 282.675C324.234 282.107 324.503 281.592 324.908 281.13C325.322 280.669 325.836 280.302 326.45 280.03C327.071 279.767 327.745 279.635 328.473 279.635ZM327.243 284.801C327.785 284.801 328.247 284.653 328.631 284.356C329.012 284.068 329.252 283.714 329.351 283.293C329.45 282.873 329.378 282.515 329.134 282.218C328.898 281.93 328.508 281.785 327.967 281.785C327.425 281.785 326.959 281.93 326.569 282.218C326.186 282.515 325.945 282.873 325.846 283.293C325.747 283.714 325.82 284.068 326.065 284.356C326.309 284.653 326.701 284.801 327.243 284.801Z" fill="#FE9C67"/>
<path d="M139.778 425.383C139.57 426.266 139.148 427.096 138.511 427.873C137.893 428.65 137.086 429.303 136.09 429.833C135.113 430.362 134.022 430.68 132.818 430.786L132.312 432.931H130.543L131.049 430.786C129.381 430.627 128.125 430.106 127.281 429.223C126.437 428.341 126.185 427.175 126.527 425.727H129.846C129.739 426.416 129.83 426.99 130.121 427.449C130.416 427.89 130.921 428.173 131.636 428.296L133.009 422.469C131.864 422.169 130.946 421.869 130.255 421.569C129.568 421.251 129.031 420.757 128.645 420.086C128.277 419.415 128.231 418.497 128.505 417.331C128.851 415.866 129.662 414.656 130.939 413.703C132.22 412.731 133.731 412.166 135.474 412.008L135.98 409.862H137.748L137.243 412.008C138.806 412.149 139.968 412.643 140.73 413.491C141.514 414.321 141.797 415.468 141.579 416.934H138.259C138.333 416.387 138.23 415.901 137.949 415.477C137.672 415.036 137.235 414.736 136.637 414.577L135.289 420.298C136.438 420.58 137.356 420.88 138.043 421.198C138.734 421.498 139.264 421.984 139.632 422.655C140.004 423.308 140.053 424.218 139.778 425.383ZM131.699 417.172C131.529 417.896 131.613 418.461 131.953 418.867C132.311 419.274 132.869 419.6 133.627 419.847L134.887 414.497C134.087 414.586 133.396 414.859 132.816 415.318C132.255 415.777 131.882 416.395 131.699 417.172ZM133.404 428.296C134.232 428.173 134.93 427.864 135.5 427.369C136.075 426.857 136.445 426.248 136.611 425.542C136.778 424.836 136.68 424.288 136.318 423.9C135.978 423.494 135.429 423.167 134.671 422.92L133.404 428.296ZM146.84 426.522C148.927 425.056 150.58 423.856 151.798 422.92C153.039 421.966 154.115 420.977 155.028 419.953C155.94 418.929 156.517 417.905 156.759 416.881C157.008 415.822 156.941 414.992 156.556 414.391C156.19 413.791 155.453 413.491 154.347 413.491C153.276 413.491 152.363 413.826 151.606 414.497C150.871 415.151 150.355 416.033 150.057 417.146H147.063C147.592 415.133 148.571 413.597 150 412.537C151.451 411.46 153.092 410.922 154.925 410.922C156.902 410.922 158.319 411.451 159.176 412.511C160.051 413.57 160.281 414.983 159.865 416.749C159.565 418.02 158.94 419.247 157.99 420.43C157.063 421.595 156.026 422.646 154.88 423.582C153.757 424.5 152.344 425.568 150.642 426.787L149.168 427.846H157.794L157.201 430.362H143.976L144.494 428.164L146.84 426.522ZM162.568 430.813C162.006 430.813 161.578 430.627 161.284 430.256C160.991 429.886 160.908 429.426 161.037 428.879C161.166 428.332 161.465 427.873 161.933 427.502C162.402 427.131 162.917 426.946 163.479 426.946C164.024 426.946 164.443 427.131 164.736 427.502C165.03 427.873 165.112 428.332 164.983 428.879C164.854 429.426 164.555 429.886 164.087 430.256C163.619 430.627 163.112 430.813 162.568 430.813ZM185.177 413.65L173.611 430.627H170.482L182.054 413.967H171.986L172.591 411.398H185.707L185.177 413.65ZM190.644 420.536C188.974 419.618 188.372 418.17 188.838 416.192C189.063 415.239 189.514 414.365 190.191 413.57C190.868 412.776 191.75 412.149 192.838 411.69C193.93 411.213 195.183 410.975 196.598 410.975C197.995 410.975 199.127 411.213 199.994 411.69C200.884 412.149 201.48 412.776 201.783 413.57C202.085 414.365 202.124 415.239 201.899 416.192C201.666 417.181 201.197 418.055 200.492 418.814C199.81 419.556 198.994 420.13 198.046 420.536C198.993 420.907 199.665 421.516 200.064 422.364C200.467 423.193 200.536 424.173 200.269 425.303C199.999 426.451 199.46 427.467 198.654 428.349C197.847 429.232 196.852 429.912 195.67 430.389C194.487 430.866 193.215 431.104 191.855 431.104C190.494 431.104 189.335 430.866 188.377 430.389C187.437 429.912 186.772 429.232 186.381 428.349C185.991 427.467 185.931 426.451 186.201 425.303C186.472 424.156 187.004 423.167 187.798 422.337C188.592 421.507 189.541 420.907 190.644 420.536ZM198.846 416.563C199.079 415.574 198.94 414.815 198.43 414.285C197.92 413.756 197.112 413.491 196.005 413.491C194.917 413.491 193.993 413.756 193.233 414.285C192.473 414.815 191.975 415.583 191.738 416.59C191.53 417.472 191.685 418.196 192.205 418.761C192.748 419.309 193.536 419.583 194.57 419.583C195.604 419.583 196.523 419.3 197.327 418.735C198.132 418.17 198.638 417.446 198.846 416.563ZM194.033 421.86C192.836 421.86 191.787 422.152 190.888 422.734C190.011 423.299 189.446 424.12 189.192 425.198C188.955 426.204 189.124 427.025 189.7 427.661C190.28 428.279 191.196 428.588 192.448 428.588C193.681 428.588 194.727 428.27 195.584 427.634C196.459 426.999 197.014 426.186 197.247 425.198C197.496 424.138 197.318 423.317 196.711 422.734C196.123 422.152 195.23 421.86 194.033 421.86ZM208.46 425.383C208.434 426.266 208.666 426.937 209.156 427.396C209.646 427.855 210.4 428.085 211.416 428.085C212.704 428.085 213.763 427.59 214.595 426.601C215.427 425.612 216.123 423.926 216.685 421.542C216.108 422.143 215.381 422.611 214.504 422.946C213.649 423.264 212.759 423.423 211.834 423.423C210.655 423.423 209.638 423.193 208.785 422.734C207.936 422.258 207.338 421.56 206.992 420.642C206.669 419.706 206.663 418.576 206.975 417.252C207.433 415.309 208.377 413.764 209.809 412.617C211.263 411.451 213.014 410.869 215.064 410.869C217.531 410.869 219.093 411.672 219.748 413.279C220.426 414.868 220.376 417.314 219.598 420.615C219.061 422.893 218.422 424.756 217.682 426.204C216.96 427.652 216.031 428.747 214.894 429.488C213.758 430.23 212.337 430.601 210.632 430.601C208.691 430.601 207.311 430.106 206.492 429.117C205.673 428.129 205.376 426.884 205.603 425.383H208.46ZM212.977 420.88C214.066 420.88 214.995 420.554 215.766 419.9C216.559 419.229 217.085 418.347 217.343 417.252C217.63 416.033 217.517 415.089 217.004 414.418C216.513 413.729 215.696 413.385 214.553 413.385C213.41 413.385 212.42 413.738 211.582 414.444C210.767 415.133 210.226 416.042 209.96 417.172C209.706 418.249 209.813 419.141 210.282 419.847C210.773 420.536 211.671 420.88 212.977 420.88ZM223.338 430.813C222.776 430.813 222.348 430.627 222.054 430.256C221.76 429.886 221.678 429.426 221.807 428.879C221.936 428.332 222.235 427.873 222.703 427.502C223.171 427.131 223.687 426.946 224.249 426.946C224.793 426.946 225.212 427.131 225.506 427.502C225.8 427.873 225.882 428.332 225.753 428.879C225.624 429.426 225.325 429.886 224.857 430.256C224.388 430.627 223.882 430.813 223.338 430.813ZM231.708 420.721C232.428 417.667 233.516 415.283 234.972 413.57C236.45 411.84 238.486 410.975 241.08 410.975C243.674 410.975 245.294 411.84 245.938 413.57C246.605 415.283 246.578 417.667 245.858 420.721C245.13 423.811 244.025 426.231 242.543 427.979C241.083 429.709 239.056 430.574 236.461 430.574C233.867 430.574 232.239 429.709 231.576 427.979C230.936 426.231 230.98 423.811 231.708 420.721ZM242.811 420.721C243.148 419.291 243.333 418.082 243.366 417.093C243.418 416.104 243.226 415.301 242.791 414.683C242.361 414.047 241.574 413.729 240.431 413.729C239.288 413.729 238.351 414.047 237.621 414.683C236.895 415.301 236.316 416.104 235.883 417.093C235.469 418.082 235.093 419.291 234.756 420.721C234.406 422.205 234.204 423.449 234.148 424.456C234.092 425.462 234.282 426.275 234.717 426.893C235.17 427.511 235.968 427.82 237.11 427.82C238.253 427.82 239.188 427.511 239.914 426.893C240.658 426.275 241.24 425.462 241.658 424.456C242.077 423.449 242.461 422.205 242.811 420.721ZM250.229 420.721C250.949 417.667 252.037 415.283 253.492 413.57C254.971 411.84 257.007 410.975 259.601 410.975C262.195 410.975 263.814 411.84 264.459 413.57C265.125 415.283 265.099 417.667 264.379 420.721C263.651 423.811 262.546 426.231 261.063 427.979C259.603 429.709 257.576 430.574 254.982 430.574C252.388 430.574 250.76 429.709 250.097 427.979C249.457 426.231 249.501 423.811 250.229 420.721ZM261.331 420.721C261.668 419.291 261.854 418.082 261.887 417.093C261.939 416.104 261.747 415.301 261.312 414.683C260.881 414.047 260.095 413.729 258.952 413.729C257.809 413.729 256.872 414.047 256.142 414.683C255.416 415.301 254.836 416.104 254.404 417.093C253.989 418.082 253.614 419.291 253.277 420.721C252.927 422.205 252.725 423.449 252.669 424.456C252.613 425.462 252.803 426.275 253.237 426.893C253.69 427.511 254.488 427.82 255.631 427.82C256.774 427.82 257.709 427.511 258.435 426.893C259.179 426.275 259.761 425.462 260.179 424.456C260.598 423.449 260.982 422.205 261.331 420.721Z" fill="white"/>
<path d="M125.881 452.161H123.499L122.939 454.536H121.69L122.249 452.161H119.868L120.127 451.059H122.509L123.069 448.683H124.319L123.759 451.059H126.141L125.881 452.161ZM127.955 451.461C128.267 450.137 128.738 449.104 129.369 448.362C130.01 447.612 130.892 447.237 132.016 447.237C133.14 447.237 133.842 447.612 134.121 448.362C134.41 449.104 134.399 450.137 134.087 451.461C133.771 452.8 133.292 453.848 132.65 454.605C132.017 455.355 131.139 455.73 130.015 455.73C128.89 455.73 128.185 455.355 127.898 454.605C127.62 453.848 127.639 452.8 127.955 451.461ZM132.766 451.461C132.912 450.841 132.992 450.317 133.007 449.888C133.029 449.46 132.946 449.112 132.758 448.844C132.571 448.568 132.23 448.431 131.735 448.431C131.24 448.431 130.834 448.568 130.517 448.844C130.203 449.112 129.951 449.46 129.764 449.888C129.584 450.317 129.422 450.841 129.276 451.461C129.124 452.103 129.036 452.643 129.012 453.079C128.988 453.515 129.07 453.867 129.259 454.135C129.455 454.403 129.801 454.536 130.296 454.536C130.791 454.536 131.196 454.403 131.511 454.135C131.833 453.867 132.085 453.515 132.267 453.079C132.448 452.643 132.614 452.103 132.766 451.461ZM141.679 448.396L136.667 455.753H135.311L140.326 448.534H135.963L136.225 447.421H141.909L141.679 448.396ZM141.796 455.833C141.552 455.833 141.367 455.753 141.24 455.592C141.112 455.432 141.077 455.233 141.133 454.996C141.189 454.758 141.318 454.559 141.521 454.399C141.724 454.238 141.947 454.158 142.191 454.158C142.427 454.158 142.608 454.238 142.735 454.399C142.863 454.559 142.898 454.758 142.842 454.996C142.787 455.233 142.657 455.432 142.454 455.592C142.251 455.753 142.032 455.833 141.796 455.833ZM146.421 451.38C145.697 450.982 145.436 450.355 145.638 449.498C145.735 449.085 145.931 448.706 146.224 448.362C146.518 448.017 146.9 447.746 147.371 447.547C147.844 447.34 148.388 447.237 149.001 447.237C149.606 447.237 150.097 447.34 150.472 447.547C150.858 447.746 151.116 448.017 151.247 448.362C151.378 448.706 151.395 449.085 151.298 449.498C151.197 449.926 150.994 450.305 150.688 450.634C150.392 450.956 150.039 451.204 149.628 451.38C150.038 451.541 150.33 451.805 150.503 452.172C150.677 452.532 150.707 452.956 150.592 453.446C150.474 453.943 150.241 454.383 149.891 454.766C149.542 455.149 149.111 455.443 148.598 455.65C148.086 455.856 147.535 455.96 146.945 455.96C146.356 455.96 145.853 455.856 145.438 455.65C145.031 455.443 144.743 455.149 144.573 454.766C144.404 454.383 144.378 453.943 144.495 453.446C144.613 452.949 144.843 452.52 145.187 452.161C145.532 451.801 145.943 451.541 146.421 451.38ZM149.975 449.659C150.076 449.23 150.016 448.901 149.795 448.672C149.574 448.442 149.223 448.327 148.744 448.327C148.272 448.327 147.872 448.442 147.543 448.672C147.213 448.901 146.997 449.234 146.895 449.67C146.804 450.053 146.872 450.366 147.097 450.611C147.332 450.848 147.674 450.967 148.122 450.967C148.57 450.967 148.968 450.845 149.317 450.6C149.665 450.355 149.885 450.041 149.975 449.659ZM147.889 451.954C147.37 451.954 146.916 452.08 146.526 452.333C146.146 452.578 145.901 452.933 145.791 453.4C145.689 453.836 145.762 454.192 146.012 454.468C146.263 454.735 146.66 454.869 147.202 454.869C147.737 454.869 148.19 454.732 148.561 454.456C148.941 454.181 149.181 453.829 149.282 453.4C149.39 452.941 149.313 452.585 149.05 452.333C148.795 452.08 148.408 451.954 147.889 451.954ZM153.669 453.481C153.658 453.863 153.758 454.154 153.971 454.353C154.183 454.552 154.51 454.651 154.95 454.651C155.508 454.651 155.967 454.437 156.328 454.008C156.688 453.58 156.99 452.849 157.233 451.816C156.983 452.076 156.668 452.279 156.288 452.425C155.918 452.562 155.532 452.631 155.131 452.631C154.62 452.631 154.18 452.532 153.81 452.333C153.442 452.126 153.183 451.824 153.033 451.426C152.893 451.021 152.89 450.531 153.026 449.957C153.224 449.115 153.633 448.446 154.254 447.948C154.884 447.443 155.643 447.191 156.531 447.191C157.6 447.191 158.277 447.539 158.561 448.235C158.854 448.924 158.833 449.984 158.495 451.415C158.263 452.402 157.986 453.209 157.665 453.836C157.352 454.464 156.95 454.938 156.457 455.259C155.965 455.581 155.349 455.742 154.61 455.742C153.769 455.742 153.171 455.527 152.816 455.099C152.461 454.67 152.333 454.131 152.431 453.481H153.669ZM155.627 451.529C156.098 451.529 156.501 451.388 156.835 451.105C157.179 450.814 157.407 450.431 157.518 449.957C157.643 449.429 157.594 449.02 157.371 448.729C157.159 448.431 156.805 448.281 156.31 448.281C155.814 448.281 155.385 448.434 155.022 448.74C154.669 449.039 154.434 449.433 154.319 449.923C154.209 450.389 154.256 450.776 154.459 451.082C154.671 451.38 155.061 451.529 155.627 451.529ZM161.154 453.481C161.143 453.863 161.243 454.154 161.456 454.353C161.668 454.552 161.995 454.651 162.435 454.651C162.993 454.651 163.452 454.437 163.813 454.008C164.173 453.58 164.475 452.849 164.718 451.816C164.468 452.076 164.153 452.279 163.773 452.425C163.403 452.562 163.017 452.631 162.616 452.631C162.105 452.631 161.665 452.532 161.295 452.333C160.927 452.126 160.668 451.824 160.518 451.426C160.378 451.021 160.375 450.531 160.511 449.957C160.709 449.115 161.118 448.446 161.739 447.948C162.369 447.443 163.128 447.191 164.016 447.191C165.085 447.191 165.762 447.539 166.046 448.235C166.339 448.924 166.318 449.984 165.98 451.415C165.748 452.402 165.471 453.209 165.15 453.836C164.837 454.464 164.435 454.938 163.942 455.259C163.45 455.581 162.834 455.742 162.095 455.742C161.254 455.742 160.656 455.527 160.301 455.099C159.946 454.67 159.818 454.131 159.916 453.481H161.154ZM163.112 451.529C163.583 451.529 163.986 451.388 164.32 451.105C164.664 450.814 164.891 450.431 165.003 449.957C165.128 449.429 165.079 449.02 164.856 448.729C164.644 448.431 164.29 448.281 163.794 448.281C163.299 448.281 162.87 448.434 162.507 448.74C162.154 449.039 161.919 449.433 161.804 449.923C161.694 450.389 161.741 450.776 161.944 451.082C162.156 451.38 162.546 451.529 163.112 451.529ZM172.138 457.888C171.537 457.169 171.159 456.254 171.003 455.145C170.856 454.035 170.932 452.845 171.231 451.575C171.538 450.275 172.047 449.046 172.76 447.891C173.48 446.736 174.361 445.783 175.403 445.033H176.794L176.764 445.16C175.669 445.971 174.76 446.942 174.037 448.075C173.315 449.207 172.812 450.374 172.529 451.575C172.256 452.731 172.205 453.848 172.376 454.927C172.546 456.006 172.94 456.95 173.559 457.762L173.529 457.888H172.138ZM176.458 453.974C177.362 453.339 178.079 452.819 178.606 452.413C179.144 452 179.611 451.571 180.006 451.128C180.401 450.684 180.651 450.24 180.756 449.796C180.864 449.337 180.835 448.978 180.668 448.717C180.509 448.457 180.19 448.327 179.711 448.327C179.247 448.327 178.851 448.473 178.523 448.763C178.205 449.046 177.981 449.429 177.852 449.911H176.555C176.784 449.039 177.208 448.373 177.827 447.914C178.456 447.447 179.167 447.214 179.961 447.214C180.818 447.214 181.432 447.443 181.804 447.903C182.183 448.362 182.282 448.974 182.102 449.739C181.972 450.29 181.701 450.822 181.29 451.334C180.888 451.839 180.439 452.295 179.942 452.7C179.455 453.098 178.843 453.561 178.105 454.089L177.467 454.548H181.205L180.948 455.638H175.217L175.441 454.686L176.458 453.974ZM182.802 455.833C182.558 455.833 182.373 455.753 182.245 455.592C182.118 455.432 182.083 455.233 182.139 454.996C182.194 454.758 182.324 454.559 182.527 454.399C182.73 454.238 182.953 454.158 183.197 454.158C183.433 454.158 183.614 454.238 183.741 454.399C183.869 454.559 183.904 454.758 183.848 454.996C183.792 455.233 183.663 455.432 183.46 455.592C183.257 455.753 183.038 455.833 182.802 455.833ZM186.108 453.974C187.012 453.339 187.728 452.819 188.256 452.413C188.794 452 189.26 451.571 189.656 451.128C190.051 450.684 190.301 450.24 190.406 449.796C190.514 449.337 190.485 448.978 190.318 448.717C190.159 448.457 189.84 448.327 189.361 448.327C188.897 448.327 188.501 448.473 188.173 448.763C187.855 449.046 187.631 449.429 187.502 449.911H186.205C186.434 449.039 186.858 448.373 187.477 447.914C188.106 447.447 188.817 447.214 189.611 447.214C190.468 447.214 191.082 447.443 191.453 447.903C191.833 448.362 191.932 448.974 191.752 449.739C191.622 450.29 191.351 450.822 190.94 451.334C190.538 451.839 190.088 452.295 189.592 452.7C189.105 453.098 188.493 453.561 187.755 454.089L187.116 454.548H190.854L190.597 455.638H184.867L185.091 454.686L186.108 453.974ZM199 448.511H195.05L194.512 450.795C194.727 450.581 195.013 450.401 195.37 450.255C195.734 450.11 196.101 450.037 196.471 450.037C197.131 450.037 197.633 450.175 197.977 450.451C198.329 450.726 198.541 451.074 198.615 451.495C198.697 451.916 198.683 452.36 198.573 452.826C198.439 453.393 198.206 453.898 197.874 454.341C197.551 454.777 197.136 455.122 196.628 455.374C196.128 455.627 195.556 455.753 194.911 455.753C194.055 455.753 193.415 455.546 192.994 455.133C192.573 454.72 192.391 454.173 192.449 453.492H193.758C193.76 453.852 193.885 454.139 194.133 454.353C194.383 454.559 194.732 454.663 195.18 454.663C195.738 454.663 196.194 454.498 196.546 454.169C196.907 453.84 197.151 453.404 197.279 452.861C197.409 452.31 197.367 451.889 197.152 451.598C196.94 451.3 196.558 451.151 196.008 451.151C195.623 451.151 195.274 451.246 194.961 451.438C194.659 451.621 194.411 451.874 194.217 452.195H192.943L194.082 447.363H199.27L199 448.511ZM200.566 449.406C200.697 448.848 200.965 448.411 201.369 448.098C201.783 447.776 202.253 447.616 202.78 447.616C203.307 447.616 203.697 447.776 203.952 448.098C204.216 448.411 204.282 448.848 204.15 449.406C204.019 449.965 203.746 450.405 203.332 450.726C202.926 451.047 202.46 451.208 201.933 451.208C201.407 451.208 201.012 451.047 200.75 450.726C200.495 450.405 200.434 449.965 200.566 449.406ZM208.145 447.765L201.558 455.753H200.237L206.825 447.765H208.145ZM202.593 448.408C202.098 448.408 201.772 448.74 201.615 449.406C201.456 450.079 201.625 450.416 202.12 450.416C202.356 450.416 202.556 450.336 202.719 450.175C202.893 450.007 203.02 449.75 203.101 449.406C203.258 448.74 203.089 448.408 202.593 448.408ZM204.259 454.1C204.39 453.542 204.658 453.106 205.062 452.792C205.476 452.471 205.946 452.31 206.473 452.31C206.992 452.31 207.378 452.471 207.633 452.792C207.897 453.106 207.963 453.542 207.832 454.1C207.7 454.659 207.427 455.099 207.013 455.42C206.608 455.742 206.145 455.902 205.626 455.902C205.1 455.902 204.705 455.742 204.443 455.42C204.188 455.099 204.127 454.659 204.259 454.1ZM206.275 453.102C205.779 453.102 205.453 453.435 205.296 454.1C205.139 454.766 205.309 455.099 205.804 455.099C206.299 455.099 206.625 454.766 206.782 454.1C206.939 453.435 206.77 453.102 206.275 453.102ZM207.988 457.888L208.018 457.762C209.018 456.95 209.858 456.006 210.537 454.927C211.216 453.848 211.691 452.731 211.963 451.575C212.247 450.374 212.294 449.207 212.104 448.075C211.915 446.942 211.464 445.971 210.751 445.16L210.781 445.033H212.173C212.861 445.783 213.289 446.736 213.457 447.891C213.632 449.046 213.567 450.275 213.261 451.575C212.961 452.845 212.472 454.035 211.794 455.145C211.124 456.254 210.319 457.169 209.379 457.888H207.988Z" fill="#FFE7DB"/>
<path d="M320.325 210.491C321.167 209.813 322.159 209.283 323.301 208.902C324.442 208.528 325.621 208.34 326.84 208.34C328.088 208.34 329.206 208.538 330.194 208.934C331.188 209.336 331.949 209.908 332.479 210.65L332.241 211.657H332.143C331.568 210.865 330.791 210.269 329.812 209.866C328.838 209.471 327.774 209.273 326.621 209.273C325.496 209.273 324.378 209.46 323.266 209.834C322.153 210.216 321.127 210.77 320.186 211.498H320.088L320.325 210.491ZM326.902 223.138H319.37L319.597 222.174H325.213L320.171 219.737L320.331 219.059L326.535 216.612H320.907L321.135 215.647H328.667L328.422 216.686L321.557 219.398L327.144 222.11L326.902 223.138ZM318.356 227.114C318.471 226.627 318.661 226.189 318.927 225.8C319.198 225.419 319.516 225.119 319.88 224.9C320.25 224.681 320.643 224.568 321.059 224.561L320.817 225.588C320.453 225.624 320.118 225.765 319.813 226.012C319.514 226.267 319.308 226.634 319.194 227.114C319.086 227.573 319.117 227.933 319.288 228.195C319.464 228.463 319.737 228.597 320.108 228.597C320.398 228.597 320.652 228.52 320.87 228.364C321.088 228.209 321.272 228.015 321.421 227.782C321.57 227.548 321.746 227.234 321.948 226.839C322.193 226.351 322.416 225.959 322.617 225.663C322.816 225.373 323.078 225.122 323.404 224.91C323.735 224.706 324.136 224.603 324.608 224.603C325.022 224.603 325.364 224.706 325.635 224.91C325.906 225.115 326.085 225.401 326.173 225.769C326.259 226.143 326.245 226.57 326.132 227.051C325.969 227.743 325.658 228.308 325.199 228.746C324.739 229.191 324.208 229.441 323.607 229.498L323.857 228.438C324.155 228.403 324.444 228.255 324.723 227.993C325.01 227.732 325.204 227.386 325.306 226.955C325.4 226.553 325.369 226.224 325.211 225.97C325.061 225.716 324.793 225.588 324.408 225.588C324.133 225.588 323.89 225.663 323.681 225.811C323.47 225.966 323.292 226.154 323.146 226.372C323.006 226.598 322.83 226.913 322.619 227.315C322.366 227.803 322.136 228.195 321.928 228.491C321.728 228.788 321.461 229.042 321.128 229.254C320.803 229.466 320.4 229.572 319.921 229.572C319.551 229.572 319.225 229.477 318.944 229.286C318.662 229.095 318.464 228.813 318.349 228.438C318.234 228.064 318.237 227.623 318.356 227.114ZM321.403 230.631C322.143 230.631 322.768 230.793 323.28 231.118C323.798 231.443 324.158 231.884 324.361 232.442C324.561 233.007 324.581 233.632 324.42 234.317C324.23 235.123 323.865 235.825 323.324 236.426C322.784 237.026 322.114 237.464 321.317 237.739L321.589 236.585C322.094 236.38 322.516 236.083 322.854 235.695C323.191 235.313 323.422 234.854 323.549 234.317C323.67 233.802 323.656 233.339 323.506 232.929C323.356 232.52 323.079 232.198 322.677 231.965C322.282 231.732 321.78 231.616 321.17 231.616C320.568 231.616 320.011 231.732 319.499 231.965C318.994 232.198 318.57 232.52 318.227 232.929C317.884 233.339 317.651 233.802 317.53 234.317C317.403 234.854 317.415 235.313 317.564 235.695C317.719 236.083 318.001 236.38 318.41 236.585L318.138 237.739C317.478 237.464 317.018 237.026 316.761 236.426C316.51 235.825 316.48 235.123 316.67 234.317C316.831 233.632 317.142 233.007 317.601 232.442C318.067 231.884 318.632 231.443 319.296 231.118C319.96 230.793 320.662 230.631 321.403 230.631ZM312.973 241.692H313.071C313.668 242.419 314.435 242.97 315.37 243.344C316.303 243.726 317.332 243.917 318.457 243.917C319.611 243.917 320.768 243.715 321.93 243.313C323.097 242.917 324.155 242.324 325.103 241.533H325.201L324.964 242.539C324.085 243.281 323.055 243.849 321.873 244.245C320.697 244.648 319.485 244.849 318.237 244.849C317.018 244.849 315.927 244.658 314.965 244.277C314.001 243.902 313.258 243.376 312.736 242.698L312.973 241.692Z" fill="#FE9C67"/>
</g>
<path d="M317.117 114C317.117 117.077 321.706 124 324 124C321.864 124 318.069 128.003 317.558 132.902C317.58 133.283 317.563 133.651 317.5 134C317.5 133.63 317.52 133.264 317.558 132.902C317.329 129.087 313.086 124 311 124C312.529 124 317.117 120.462 317.117 114Z" fill="#FF7955"/>
<path d="M45.7648 388C45.7648 390 48.5886 394.5 50.0002 394.5C48.6855 394.5 46.3504 397.102 46.0357 400.286C46.0498 400.534 46.0392 400.773 46.0002 401C46.0002 400.759 46.0125 400.521 46.0357 400.286C45.8949 397.807 43.2839 394.5 42.0002 394.5C42.9414 394.5 45.7648 392.2 45.7648 388Z" fill="#FF7955"/>
<path d="M357.883 455C357.883 456.077 359.294 458.5 360 458.5C359.343 458.5 358.175 459.901 358.018 461.616C358.025 461.749 358.02 461.878 358 462C358 461.87 358.006 461.742 358.018 461.616C357.948 460.281 356.642 458.5 356 458.5C356.471 458.5 357.883 457.262 357.883 455Z" fill="#FF7955"/>
<path d="M11.8825 166C11.8825 167.077 13.2944 169.5 14.0002 169.5C13.3429 169.5 12.1753 170.901 12.018 172.616C12.025 172.749 12.0197 172.878 12.0002 173C12.0002 172.87 12.0064 172.742 12.018 172.616C11.9476 171.281 10.6421 169.5 10.0002 169.5C10.4708 169.5 11.8825 168.262 11.8825 166Z" fill="#FF7955"/>
<path d="M390.802 389.337C371.532 419.602 332.681 433.6 285.128 431.49C237.605 429.382 181.609 411.179 128.442 377.329C75.2764 343.48 35.0894 300.446 13.0707 258.279C-8.96235 216.084 -12.718 174.959 6.55114 144.694C25.8203 114.429 64.6712 100.431 112.225 102.541C159.748 104.649 215.744 122.852 268.91 156.702C322.076 190.551 362.263 233.585 384.282 275.752C406.315 317.947 410.071 359.071 390.802 389.337Z" stroke="url(#paint2_linear_2201_474)" stroke-width="2"/>
<defs>
<filter id="filter0_f_2201_474" x="-176" y="-44.02" width="728" height="728" filterUnits="userSpaceOnUse" color-interpolation-filters="sRGB">
<feFlood flood-opacity="0" result="BackgroundImageFix"/>
<feBlend mode="normal" in="SourceGraphic" in2="BackgroundImageFix" result="shape"/>
<feGaussianBlur stdDeviation="100" result="effect1_foregroundBlur_2201_474"/>
</filter>
<filter id="filter1_b_2201_474" x="65.3124" y="299.452" width="244.484" height="100.344" filterUnits="userSpaceOnUse" color-interpolation-filters="sRGB">
<feFlood flood-opacity="0" result="BackgroundImageFix"/>
<feGaussianBlur in="BackgroundImage" stdDeviation="5.44229"/>
<feComposite in2="SourceAlpha" operator="in" result="effect1_backgroundBlur_2201_474"/>
<feBlend mode="normal" in="SourceGraphic" in2="effect1_backgroundBlur_2201_474" result="shape"/>
</filter>
<filter id="filter2_f_2201_474" x="-55.4232" y="86.1342" width="527.275" height="531.109" filterUnits="userSpaceOnUse" color-interpolation-filters="sRGB">
<feFlood flood-opacity="0" result="BackgroundImageFix"/>
<feBlend mode="normal" in="SourceGraphic" in2="BackgroundImageFix" result="shape"/>
<feGaussianBlur stdDeviation="54.4229" result="effect1_foregroundBlur_2201_474"/>
</filter>
<filter id="filter3_b_2201_474" x="88.2023" y="378.182" width="244.484" height="100.344" filterUnits="userSpaceOnUse" color-interpolation-filters="sRGB">
<feFlood flood-opacity="0" result="BackgroundImageFix"/>
<feGaussianBlur in="BackgroundImage" stdDeviation="5.44229"/>
<feComposite in2="SourceAlpha" operator="in" result="effect1_backgroundBlur_2201_474"/>
<feBlend mode="normal" in="SourceGraphic" in2="effect1_backgroundBlur_2201_474" result="shape"/>
</filter>
<linearGradient id="paint0_linear_2201_474" x1="192.629" y1="-96.6007" x2="123.151" y2="330.475" gradientUnits="userSpaceOnUse">
<stop stop-color="#FF9255"/>
<stop offset="0.493214" stop-color="#FF9055"/>
<stop offset="1" stop-color="#FF6E47"/>
</linearGradient>
<linearGradient id="paint1_linear_2201_474" x1="201.818" y1="-56.237" x2="144.784" y2="493.979" gradientUnits="userSpaceOnUse">
<stop stop-color="white"/>
<stop offset="0.493214" stop-color="#FFCAAD"/>
<stop offset="1" stop-color="#FF7955"/>
</linearGradient>
<linearGradient id="paint2_linear_2201_474" x1="199" y1="229.98" x2="127.905" y2="378.173" gradientUnits="userSpaceOnUse">
<stop stop-color="#FF7955" stop-opacity="0"/>
<stop offset="1" stop-color="#FF7955"/>
</linearGradient>
<clipPath id="clip0_2201_474">
<rect width="230.39" height="322.002" fill="white" transform="matrix(1 0 0.22937 0.973339 14 101.98)"/>
</clipPath>
<clipPath id="clip1_2201_474">
<rect width="230.39" height="322.002" fill="white" transform="matrix(1 0 -0.22937 0.973339 153.609 180.71)"/>
</clipPath>
</defs>
</svg>
