<svg width="26" height="26" viewBox="0 0 26 26" fill="none" xmlns="http://www.w3.org/2000/svg">
<path d="M21.8724 15.2317L20.6482 13.195C20.3774 12.7508 20.1391 11.895 20.1391 11.375V9.34916C20.1391 5.41666 16.9432 2.22083 13.0216 2.22083C9.08906 2.23166 5.89323 5.41666 5.89323 9.34916V11.3642C5.89323 11.8842 5.65489 12.74 5.39489 13.1842L4.17073 15.2208C3.70489 16.0117 3.59656 16.9108 3.88906 17.6908C4.18156 18.4817 4.84239 19.11 5.70906 19.3917C6.87906 19.7817 8.05989 20.0633 9.26239 20.2692C9.38156 20.2908 9.50073 20.3017 9.61989 20.3233C9.77156 20.345 9.93406 20.3667 10.0966 20.3883C10.3782 20.4317 10.6599 20.4642 10.9524 20.4858C11.6349 20.5508 12.3282 20.5833 13.0216 20.5833C13.7041 20.5833 14.3866 20.5508 15.0582 20.4858C15.3074 20.4642 15.5566 20.4425 15.7949 20.41C15.9899 20.3883 16.1849 20.3667 16.3799 20.3342C16.4991 20.3233 16.6182 20.3017 16.7374 20.28C17.9507 20.085 19.1532 19.7817 20.3232 19.3917C21.1574 19.11 21.7966 18.4817 22.0999 17.68C22.4032 16.8675 22.3166 15.9792 21.8724 15.2317ZM13.8124 10.8333C13.8124 11.2883 13.4441 11.6567 12.9891 11.6567C12.5341 11.6567 12.1657 11.2883 12.1657 10.8333V7.47499C12.1657 7.01999 12.5341 6.65166 12.9891 6.65166C13.4441 6.65166 13.8124 7.01999 13.8124 7.47499V10.8333Z" fill="#C9C9C9"/>
<path d="M16.0659 21.6775C15.6109 22.9341 14.4084 23.8333 13.0001 23.8333C12.1442 23.8333 11.2992 23.4866 10.7034 22.8691C10.3567 22.5441 10.0967 22.1108 9.94507 21.6666C10.0859 21.6883 10.2267 21.6991 10.3784 21.7208C10.6276 21.7533 10.8876 21.7858 11.1476 21.8075C11.7651 21.8616 12.3934 21.8941 13.0217 21.8941C13.6392 21.8941 14.2567 21.8616 14.8634 21.8075C15.0909 21.7858 15.3184 21.775 15.5351 21.7425C15.7084 21.7208 15.8817 21.6991 16.0659 21.6775Z" fill="#C9C9C9"/>
</svg>
