<svg width="50" height="50" viewBox="0 0 50 50" fill="none" xmlns="http://www.w3.org/2000/svg">
<circle cx="25" cy="25" r="25" fill="#262626"/>
<path d="M30.5401 22.81C32.1748 22.81 33.5001 21.4848 33.5001 19.85C33.5001 18.2153 32.1748 16.89 30.5401 16.89C28.9053 16.89 27.5801 18.2153 27.5801 19.85C27.5801 21.4848 28.9053 22.81 30.5401 22.81Z" fill="white"/>
<path d="M19.46 22.81C21.0948 22.81 22.42 21.4848 22.42 19.85C22.42 18.2153 21.0948 16.89 19.46 16.89C17.8252 16.89 16.5 18.2153 16.5 19.85C16.5 21.4848 17.8252 22.81 19.46 22.81Z" fill="white"/>
<path d="M30.5401 35.1099C32.1748 35.1099 33.5001 33.7847 33.5001 32.1499C33.5001 30.5152 32.1748 29.1899 30.5401 29.1899C28.9053 29.1899 27.5801 30.5152 27.5801 32.1499C27.5801 33.7847 28.9053 35.1099 30.5401 35.1099Z" fill="white"/>
<path d="M19.46 35.1099C21.0948 35.1099 22.42 33.7847 22.42 32.1499C22.42 30.5152 21.0948 29.1899 19.46 29.1899C17.8252 29.1899 16.5 30.5152 16.5 32.1499C16.5 33.7847 17.8252 35.1099 19.46 35.1099Z" fill="white"/>
</svg>
